<mxfile host="Electron" modified="2024-04-12T07:35:26.395Z" agent="Mozilla/5.0 (Macintosh; Intel Mac OS X 10_15_7) AppleWebKit/537.36 (KHTML, like Gecko) draw.io/21.4.0 Chrome/112.0.5615.204 Electron/24.5.1 Safari/537.36" etag="hUhIMXLrlMt2VnTEI2ZG" version="21.4.0" type="device" pages="2">
  <diagram name="Page-1" id="5DR9g9Azi6W64938mu2l">
    <mxGraphModel dx="1242" dy="828" grid="1" gridSize="10" guides="1" tooltips="1" connect="1" arrows="1" fold="1" page="1" pageScale="1" pageWidth="827" pageHeight="1169" math="0" shadow="0">
      <root>
        <mxCell id="0" />
        <mxCell id="1" parent="0" />
        <mxCell id="fiDsNhdY71zRaWYxNTFs-1" value="" style="rounded=0;whiteSpace=wrap;html=1;" vertex="1" parent="1">
          <mxGeometry x="170" y="140" width="400" height="420" as="geometry" />
        </mxCell>
        <mxCell id="fiDsNhdY71zRaWYxNTFs-2" value="" style="rounded=0;whiteSpace=wrap;html=1;" vertex="1" parent="1">
          <mxGeometry x="200" y="200" width="160" height="330" as="geometry" />
        </mxCell>
        <mxCell id="fiDsNhdY71zRaWYxNTFs-3" value="Event Queue" style="text;html=1;strokeColor=none;fillColor=none;align=center;verticalAlign=middle;whiteSpace=wrap;rounded=0;fontStyle=1;fontSize=18;" vertex="1" parent="1">
          <mxGeometry x="200" y="160" width="160" height="30" as="geometry" />
        </mxCell>
        <mxCell id="fiDsNhdY71zRaWYxNTFs-5" style="edgeStyle=orthogonalEdgeStyle;rounded=0;orthogonalLoop=1;jettySize=auto;html=1;" edge="1" parent="1" source="fiDsNhdY71zRaWYxNTFs-4" target="fiDsNhdY71zRaWYxNTFs-2">
          <mxGeometry relative="1" as="geometry" />
        </mxCell>
        <mxCell id="fiDsNhdY71zRaWYxNTFs-4" value="Event&amp;nbsp;&lt;br style=&quot;font-size: 18px;&quot;&gt;Loop" style="ellipse;whiteSpace=wrap;html=1;aspect=fixed;fontStyle=1;fontSize=18;" vertex="1" parent="1">
          <mxGeometry x="400" y="295" width="140" height="140" as="geometry" />
        </mxCell>
        <mxCell id="fiDsNhdY71zRaWYxNTFs-6" value="&lt;b&gt;&lt;font style=&quot;font-size: 16px;&quot;&gt;Event&lt;/font&gt;&lt;/b&gt;&lt;br&gt;callback function" style="rounded=0;whiteSpace=wrap;html=1;fillColor=#fff2cc;strokeColor=#d6b656;" vertex="1" parent="1">
          <mxGeometry x="215" y="390" width="130" height="55" as="geometry" />
        </mxCell>
        <mxCell id="fiDsNhdY71zRaWYxNTFs-7" value="&lt;b&gt;&lt;font style=&quot;font-size: 16px;&quot;&gt;Event&lt;/font&gt;&lt;/b&gt;&lt;br&gt;callback function" style="rounded=0;whiteSpace=wrap;html=1;fillColor=#d5e8d4;strokeColor=#82b366;" vertex="1" parent="1">
          <mxGeometry x="215" y="460" width="130" height="55" as="geometry" />
        </mxCell>
      </root>
    </mxGraphModel>
  </diagram>
  <diagram id="5Nz_XBQLYagmOHDu1xBi" name="Page-2">
    <mxGraphModel dx="1035" dy="690" grid="1" gridSize="10" guides="1" tooltips="1" connect="1" arrows="1" fold="1" page="1" pageScale="1" pageWidth="827" pageHeight="1169" math="0" shadow="0">
      <root>
        <mxCell id="0" />
        <mxCell id="1" parent="0" />
        <mxCell id="LDhVt3_cQzlS6mg3urMK-4" style="edgeStyle=orthogonalEdgeStyle;rounded=0;orthogonalLoop=1;jettySize=auto;html=1;entryX=0.079;entryY=0.488;entryDx=0;entryDy=0;entryPerimeter=0;" edge="1" parent="1" source="LDhVt3_cQzlS6mg3urMK-1" target="LDhVt3_cQzlS6mg3urMK-3">
          <mxGeometry relative="1" as="geometry" />
        </mxCell>
        <mxCell id="LDhVt3_cQzlS6mg3urMK-1" value="Client" style="rounded=0;whiteSpace=wrap;html=1;fontStyle=1;fontSize=18;" vertex="1" parent="1">
          <mxGeometry x="79" y="309" width="130" height="70" as="geometry" />
        </mxCell>
        <mxCell id="LDhVt3_cQzlS6mg3urMK-7" style="edgeStyle=orthogonalEdgeStyle;rounded=0;orthogonalLoop=1;jettySize=auto;html=1;" edge="1" parent="1" source="LDhVt3_cQzlS6mg3urMK-2" target="LDhVt3_cQzlS6mg3urMK-6">
          <mxGeometry relative="1" as="geometry" />
        </mxCell>
        <mxCell id="LDhVt3_cQzlS6mg3urMK-2" value="Server" style="rounded=0;whiteSpace=wrap;html=1;fontStyle=1;fontSize=18;" vertex="1" parent="1">
          <mxGeometry x="449" y="310" width="130" height="70" as="geometry" />
        </mxCell>
        <mxCell id="LDhVt3_cQzlS6mg3urMK-5" style="edgeStyle=orthogonalEdgeStyle;rounded=0;orthogonalLoop=1;jettySize=auto;html=1;entryX=0;entryY=0.5;entryDx=0;entryDy=0;" edge="1" parent="1" source="LDhVt3_cQzlS6mg3urMK-3" target="LDhVt3_cQzlS6mg3urMK-2">
          <mxGeometry relative="1" as="geometry" />
        </mxCell>
        <mxCell id="LDhVt3_cQzlS6mg3urMK-3" value="Network" style="ellipse;shape=cloud;whiteSpace=wrap;html=1;" vertex="1" parent="1">
          <mxGeometry x="272.5" y="305" width="120" height="80" as="geometry" />
        </mxCell>
        <mxCell id="LDhVt3_cQzlS6mg3urMK-16" style="edgeStyle=orthogonalEdgeStyle;rounded=0;orthogonalLoop=1;jettySize=auto;html=1;entryX=0;entryY=0.5;entryDx=0;entryDy=0;" edge="1" parent="1" source="LDhVt3_cQzlS6mg3urMK-6" target="LDhVt3_cQzlS6mg3urMK-13">
          <mxGeometry relative="1" as="geometry" />
        </mxCell>
        <mxCell id="LDhVt3_cQzlS6mg3urMK-17" style="edgeStyle=orthogonalEdgeStyle;rounded=0;orthogonalLoop=1;jettySize=auto;html=1;entryX=0;entryY=0.5;entryDx=0;entryDy=0;" edge="1" parent="1" source="LDhVt3_cQzlS6mg3urMK-6" target="LDhVt3_cQzlS6mg3urMK-15">
          <mxGeometry relative="1" as="geometry" />
        </mxCell>
        <mxCell id="LDhVt3_cQzlS6mg3urMK-6" value="DB" style="shape=cylinder3;whiteSpace=wrap;html=1;boundedLbl=1;backgroundOutline=1;size=6.833333333333414;fontStyle=1;fontSize=16;" vertex="1" parent="1">
          <mxGeometry x="629" y="305" width="60" height="80" as="geometry" />
        </mxCell>
        <mxCell id="LDhVt3_cQzlS6mg3urMK-8" value="REST&lt;br&gt;GraphQL&lt;br&gt;gRPC&lt;br&gt;SOAP" style="text;html=1;strokeColor=none;fillColor=none;align=center;verticalAlign=middle;whiteSpace=wrap;rounded=0;fontStyle=1;fontSize=18;" vertex="1" parent="1">
          <mxGeometry x="272.5" y="200" width="116" height="90" as="geometry" />
        </mxCell>
        <mxCell id="LDhVt3_cQzlS6mg3urMK-10" value="Create&lt;br&gt;Update&lt;br&gt;Read&lt;br&gt;Delete" style="text;html=1;strokeColor=none;fillColor=none;align=right;verticalAlign=middle;whiteSpace=wrap;rounded=0;fontStyle=1;fontSize=18;" vertex="1" parent="1">
          <mxGeometry x="39" y="420" width="83" height="110" as="geometry" />
        </mxCell>
        <mxCell id="LDhVt3_cQzlS6mg3urMK-11" value="POST&lt;br&gt;PUT / PATCH&lt;br&gt;GET&lt;br&gt;DELETE" style="text;html=1;strokeColor=none;fillColor=none;align=left;verticalAlign=middle;whiteSpace=wrap;rounded=0;fontStyle=1;fontSize=18;" vertex="1" parent="1">
          <mxGeometry x="132" y="420" width="130" height="110" as="geometry" />
        </mxCell>
        <mxCell id="LDhVt3_cQzlS6mg3urMK-12" value="POST /user" style="rounded=0;whiteSpace=wrap;html=1;fontStyle=1;fontSize=15;" vertex="1" parent="1">
          <mxGeometry x="451.5" y="390" width="125" height="40" as="geometry" />
        </mxCell>
        <mxCell id="LDhVt3_cQzlS6mg3urMK-13" value="User" style="rounded=0;whiteSpace=wrap;html=1;" vertex="1" parent="1">
          <mxGeometry x="729" y="309" width="60" height="30" as="geometry" />
        </mxCell>
        <mxCell id="LDhVt3_cQzlS6mg3urMK-15" value="Product" style="rounded=0;whiteSpace=wrap;html=1;" vertex="1" parent="1">
          <mxGeometry x="729" y="349" width="60" height="30" as="geometry" />
        </mxCell>
        <mxCell id="LDhVt3_cQzlS6mg3urMK-18" value="POST&lt;br&gt;PUT / PATCH&lt;br&gt;GET&lt;br&gt;DELETE" style="text;html=1;strokeColor=none;fillColor=none;align=right;verticalAlign=middle;whiteSpace=wrap;rounded=0;fontStyle=1;fontSize=18;" vertex="1" parent="1">
          <mxGeometry x="349" y="460" width="130" height="110" as="geometry" />
        </mxCell>
        <mxCell id="LDhVt3_cQzlS6mg3urMK-19" value="insert into ....&lt;br&gt;update ....&lt;br&gt;select * from ...&lt;br&gt;delete from ..." style="text;html=1;strokeColor=none;fillColor=none;align=left;verticalAlign=middle;whiteSpace=wrap;rounded=0;fontStyle=1;fontSize=18;" vertex="1" parent="1">
          <mxGeometry x="489" y="460" width="190" height="110" as="geometry" />
        </mxCell>
        <mxCell id="LDhVt3_cQzlS6mg3urMK-20" value="Response&lt;br style=&quot;font-size: 14px;&quot;&gt;JSON" style="rounded=1;whiteSpace=wrap;html=1;fontStyle=1;fontSize=14;" vertex="1" parent="1">
          <mxGeometry x="459" y="600" width="110" height="60" as="geometry" />
        </mxCell>
        <mxCell id="LDhVt3_cQzlS6mg3urMK-21" value="REST" style="text;html=1;strokeColor=none;fillColor=none;align=center;verticalAlign=middle;whiteSpace=wrap;rounded=0;fontStyle=1;fontSize=29;" vertex="1" parent="1">
          <mxGeometry x="673" y="80" width="116" height="60" as="geometry" />
        </mxCell>
        <mxCell id="LDhVt3_cQzlS6mg3urMK-22" value="Design Pattern" style="text;html=1;strokeColor=none;fillColor=none;align=center;verticalAlign=middle;whiteSpace=wrap;rounded=0;fontStyle=1;fontSize=18;" vertex="1" parent="1">
          <mxGeometry x="655.5" y="120" width="151" height="40" as="geometry" />
        </mxCell>
        <mxCell id="LDhVt3_cQzlS6mg3urMK-23" value="HTTP" style="text;html=1;strokeColor=none;fillColor=none;align=center;verticalAlign=middle;whiteSpace=wrap;rounded=0;fontStyle=1;fontSize=15;" vertex="1" parent="1">
          <mxGeometry x="302.5" y="390" width="60" height="30" as="geometry" />
        </mxCell>
      </root>
    </mxGraphModel>
  </diagram>
</mxfile>
